<mxfile host="app.diagrams.net" modified="2024-03-04T06:18:40.259Z" agent="Mozilla/5.0 (Macintosh; Intel Mac OS X 10_15_7) AppleWebKit/537.36 (KHTML, like Gecko) Chrome/122.0.0.0 Safari/537.36" etag="AuJVRFKxryWp7GUymSN7" version="24.0.0" type="github">
  <diagram name="第 1 页" id="n3AWeBgMfQS4I0mqe7hV">
    <mxGraphModel dx="1026" dy="651" grid="1" gridSize="10" guides="1" tooltips="1" connect="1" arrows="1" fold="1" page="1" pageScale="1" pageWidth="827" pageHeight="1169" math="0" shadow="0">
      <root>
        <mxCell id="0" />
        <mxCell id="1" parent="0" />
        <mxCell id="coaX5mG1cFPbBgSBIzdM-14" style="edgeStyle=orthogonalEdgeStyle;rounded=0;orthogonalLoop=1;jettySize=auto;html=1;exitX=0.5;exitY=1;exitDx=0;exitDy=0;" edge="1" parent="1" source="coaX5mG1cFPbBgSBIzdM-1" target="coaX5mG1cFPbBgSBIzdM-2">
          <mxGeometry relative="1" as="geometry" />
        </mxCell>
        <mxCell id="coaX5mG1cFPbBgSBIzdM-1" value="BIO" style="rounded=0;whiteSpace=wrap;html=1;fontSize=16;" vertex="1" parent="1">
          <mxGeometry x="240" y="140" width="120" height="60" as="geometry" />
        </mxCell>
        <mxCell id="coaX5mG1cFPbBgSBIzdM-4" style="edgeStyle=orthogonalEdgeStyle;rounded=0;orthogonalLoop=1;jettySize=auto;html=1;exitX=1;exitY=0.5;exitDx=0;exitDy=0;entryX=0;entryY=0.5;entryDx=0;entryDy=0;" edge="1" parent="1" source="coaX5mG1cFPbBgSBIzdM-2" target="coaX5mG1cFPbBgSBIzdM-3">
          <mxGeometry relative="1" as="geometry" />
        </mxCell>
        <mxCell id="coaX5mG1cFPbBgSBIzdM-2" value="Read" style="rounded=0;whiteSpace=wrap;html=1;fontSize=16;" vertex="1" parent="1">
          <mxGeometry x="240" y="250" width="120" height="60" as="geometry" />
        </mxCell>
        <mxCell id="coaX5mG1cFPbBgSBIzdM-7" style="edgeStyle=orthogonalEdgeStyle;rounded=0;orthogonalLoop=1;jettySize=auto;html=1;exitX=0.5;exitY=1;exitDx=0;exitDy=0;entryX=0.5;entryY=0;entryDx=0;entryDy=0;" edge="1" parent="1" source="coaX5mG1cFPbBgSBIzdM-3" target="coaX5mG1cFPbBgSBIzdM-6">
          <mxGeometry relative="1" as="geometry" />
        </mxCell>
        <mxCell id="coaX5mG1cFPbBgSBIzdM-3" value="网卡" style="rounded=0;whiteSpace=wrap;html=1;fontSize=16;" vertex="1" parent="1">
          <mxGeometry x="540" y="250" width="120" height="60" as="geometry" />
        </mxCell>
        <mxCell id="coaX5mG1cFPbBgSBIzdM-5" value="未就绪" style="text;html=1;align=center;verticalAlign=middle;whiteSpace=wrap;rounded=0;fontSize=16;" vertex="1" parent="1">
          <mxGeometry x="680" y="265" width="60" height="30" as="geometry" />
        </mxCell>
        <mxCell id="coaX5mG1cFPbBgSBIzdM-11" style="edgeStyle=orthogonalEdgeStyle;rounded=0;orthogonalLoop=1;jettySize=auto;html=1;exitX=0;exitY=0.5;exitDx=0;exitDy=0;" edge="1" parent="1" source="coaX5mG1cFPbBgSBIzdM-6" target="coaX5mG1cFPbBgSBIzdM-10">
          <mxGeometry relative="1" as="geometry" />
        </mxCell>
        <mxCell id="coaX5mG1cFPbBgSBIzdM-6" value="内核缓冲区" style="rounded=0;whiteSpace=wrap;html=1;fontSize=16;" vertex="1" parent="1">
          <mxGeometry x="540" y="390" width="120" height="60" as="geometry" />
        </mxCell>
        <mxCell id="coaX5mG1cFPbBgSBIzdM-8" value="拷贝" style="text;html=1;align=center;verticalAlign=middle;whiteSpace=wrap;rounded=0;fontSize=16;" vertex="1" parent="1">
          <mxGeometry x="620" y="340" width="60" height="30" as="geometry" />
        </mxCell>
        <mxCell id="coaX5mG1cFPbBgSBIzdM-9" value="就绪" style="text;html=1;align=center;verticalAlign=middle;whiteSpace=wrap;rounded=0;fontSize=16;" vertex="1" parent="1">
          <mxGeometry x="680" y="405" width="60" height="30" as="geometry" />
        </mxCell>
        <mxCell id="coaX5mG1cFPbBgSBIzdM-10" value="用户空间&lt;div style=&quot;font-size: 16px;&quot;&gt;处理数据&lt;/div&gt;" style="rounded=0;whiteSpace=wrap;html=1;fontSize=16;" vertex="1" parent="1">
          <mxGeometry x="240" y="390" width="120" height="60" as="geometry" />
        </mxCell>
        <mxCell id="coaX5mG1cFPbBgSBIzdM-12" value="拷贝" style="text;html=1;align=center;verticalAlign=middle;whiteSpace=wrap;rounded=0;fontSize=16;" vertex="1" parent="1">
          <mxGeometry x="414" y="390" width="60" height="30" as="geometry" />
        </mxCell>
        <mxCell id="coaX5mG1cFPbBgSBIzdM-13" value="阻塞&lt;div&gt;直到内核数据拷贝到用户空间&lt;/div&gt;" style="text;html=1;align=center;verticalAlign=middle;whiteSpace=wrap;rounded=0;fillColor=#a20025;fontColor=#ffffff;strokeColor=#6F0000;" vertex="1" parent="1">
          <mxGeometry x="400" y="220" width="100" height="50" as="geometry" />
        </mxCell>
        <mxCell id="coaX5mG1cFPbBgSBIzdM-15" style="edgeStyle=orthogonalEdgeStyle;rounded=0;orthogonalLoop=1;jettySize=auto;html=1;exitX=0.5;exitY=1;exitDx=0;exitDy=0;" edge="1" parent="1" source="coaX5mG1cFPbBgSBIzdM-16" target="coaX5mG1cFPbBgSBIzdM-18">
          <mxGeometry relative="1" as="geometry" />
        </mxCell>
        <mxCell id="coaX5mG1cFPbBgSBIzdM-16" value="NIO" style="rounded=0;whiteSpace=wrap;html=1;fontSize=16;" vertex="1" parent="1">
          <mxGeometry x="240" y="585" width="120" height="60" as="geometry" />
        </mxCell>
        <mxCell id="coaX5mG1cFPbBgSBIzdM-17" style="edgeStyle=orthogonalEdgeStyle;rounded=0;orthogonalLoop=1;jettySize=auto;html=1;exitX=1;exitY=0.5;exitDx=0;exitDy=0;entryX=0;entryY=0.5;entryDx=0;entryDy=0;" edge="1" parent="1" source="coaX5mG1cFPbBgSBIzdM-18" target="coaX5mG1cFPbBgSBIzdM-20">
          <mxGeometry relative="1" as="geometry" />
        </mxCell>
        <mxCell id="coaX5mG1cFPbBgSBIzdM-18" value="Read" style="rounded=0;whiteSpace=wrap;html=1;fontSize=16;" vertex="1" parent="1">
          <mxGeometry x="240" y="695" width="120" height="60" as="geometry" />
        </mxCell>
        <mxCell id="coaX5mG1cFPbBgSBIzdM-19" style="edgeStyle=orthogonalEdgeStyle;rounded=0;orthogonalLoop=1;jettySize=auto;html=1;exitX=0.5;exitY=1;exitDx=0;exitDy=0;entryX=0.5;entryY=0;entryDx=0;entryDy=0;" edge="1" parent="1" source="coaX5mG1cFPbBgSBIzdM-20" target="coaX5mG1cFPbBgSBIzdM-23">
          <mxGeometry relative="1" as="geometry" />
        </mxCell>
        <mxCell id="coaX5mG1cFPbBgSBIzdM-29" style="edgeStyle=orthogonalEdgeStyle;rounded=0;orthogonalLoop=1;jettySize=auto;html=1;exitX=0;exitY=0.25;exitDx=0;exitDy=0;entryX=1;entryY=0.25;entryDx=0;entryDy=0;dashed=1;" edge="1" parent="1" source="coaX5mG1cFPbBgSBIzdM-20" target="coaX5mG1cFPbBgSBIzdM-18">
          <mxGeometry relative="1" as="geometry" />
        </mxCell>
        <mxCell id="coaX5mG1cFPbBgSBIzdM-20" value="网卡" style="rounded=0;whiteSpace=wrap;html=1;fontSize=16;" vertex="1" parent="1">
          <mxGeometry x="540" y="695" width="120" height="60" as="geometry" />
        </mxCell>
        <mxCell id="coaX5mG1cFPbBgSBIzdM-21" value="未就绪" style="text;html=1;align=center;verticalAlign=middle;whiteSpace=wrap;rounded=0;fontSize=16;" vertex="1" parent="1">
          <mxGeometry x="680" y="710" width="60" height="30" as="geometry" />
        </mxCell>
        <mxCell id="coaX5mG1cFPbBgSBIzdM-22" style="edgeStyle=orthogonalEdgeStyle;rounded=0;orthogonalLoop=1;jettySize=auto;html=1;exitX=0;exitY=0.5;exitDx=0;exitDy=0;" edge="1" parent="1" source="coaX5mG1cFPbBgSBIzdM-23" target="coaX5mG1cFPbBgSBIzdM-26">
          <mxGeometry relative="1" as="geometry" />
        </mxCell>
        <mxCell id="coaX5mG1cFPbBgSBIzdM-23" value="内核缓冲区" style="rounded=0;whiteSpace=wrap;html=1;fontSize=16;" vertex="1" parent="1">
          <mxGeometry x="540" y="835" width="120" height="60" as="geometry" />
        </mxCell>
        <mxCell id="coaX5mG1cFPbBgSBIzdM-24" value="拷贝" style="text;html=1;align=center;verticalAlign=middle;whiteSpace=wrap;rounded=0;fontSize=16;" vertex="1" parent="1">
          <mxGeometry x="620" y="785" width="60" height="30" as="geometry" />
        </mxCell>
        <mxCell id="coaX5mG1cFPbBgSBIzdM-25" value="就绪" style="text;html=1;align=center;verticalAlign=middle;whiteSpace=wrap;rounded=0;fontSize=16;" vertex="1" parent="1">
          <mxGeometry x="680" y="850" width="60" height="30" as="geometry" />
        </mxCell>
        <mxCell id="coaX5mG1cFPbBgSBIzdM-26" value="用户空间&lt;div style=&quot;font-size: 16px;&quot;&gt;处理数据&lt;/div&gt;" style="rounded=0;whiteSpace=wrap;html=1;fontSize=16;" vertex="1" parent="1">
          <mxGeometry x="240" y="835" width="120" height="60" as="geometry" />
        </mxCell>
        <mxCell id="coaX5mG1cFPbBgSBIzdM-27" value="拷贝" style="text;html=1;align=center;verticalAlign=middle;whiteSpace=wrap;rounded=0;fontSize=16;" vertex="1" parent="1">
          <mxGeometry x="414" y="835" width="60" height="30" as="geometry" />
        </mxCell>
        <mxCell id="coaX5mG1cFPbBgSBIzdM-28" value="不会阻塞&lt;div&gt;没有数据直接返回-1&lt;/div&gt;" style="text;html=1;align=center;verticalAlign=middle;whiteSpace=wrap;rounded=0;fillColor=#a20025;fontColor=#ffffff;strokeColor=#6F0000;" vertex="1" parent="1">
          <mxGeometry x="400" y="650" width="110" height="45" as="geometry" />
        </mxCell>
        <mxCell id="coaX5mG1cFPbBgSBIzdM-30" style="edgeStyle=orthogonalEdgeStyle;rounded=0;orthogonalLoop=1;jettySize=auto;html=1;exitX=0.5;exitY=1;exitDx=0;exitDy=0;" edge="1" parent="1" source="coaX5mG1cFPbBgSBIzdM-31" target="coaX5mG1cFPbBgSBIzdM-33">
          <mxGeometry relative="1" as="geometry" />
        </mxCell>
        <mxCell id="coaX5mG1cFPbBgSBIzdM-31" value="AIO" style="rounded=0;whiteSpace=wrap;html=1;fontSize=16;" vertex="1" parent="1">
          <mxGeometry x="240" y="990" width="120" height="60" as="geometry" />
        </mxCell>
        <mxCell id="coaX5mG1cFPbBgSBIzdM-32" style="edgeStyle=orthogonalEdgeStyle;rounded=0;orthogonalLoop=1;jettySize=auto;html=1;exitX=1;exitY=0.5;exitDx=0;exitDy=0;entryX=0;entryY=0.5;entryDx=0;entryDy=0;" edge="1" parent="1" source="coaX5mG1cFPbBgSBIzdM-33" target="coaX5mG1cFPbBgSBIzdM-36">
          <mxGeometry relative="1" as="geometry" />
        </mxCell>
        <mxCell id="coaX5mG1cFPbBgSBIzdM-33" value="Read" style="rounded=0;whiteSpace=wrap;html=1;fontSize=16;" vertex="1" parent="1">
          <mxGeometry x="240" y="1100" width="120" height="60" as="geometry" />
        </mxCell>
        <mxCell id="coaX5mG1cFPbBgSBIzdM-34" style="edgeStyle=orthogonalEdgeStyle;rounded=0;orthogonalLoop=1;jettySize=auto;html=1;exitX=0.5;exitY=1;exitDx=0;exitDy=0;entryX=0.5;entryY=0;entryDx=0;entryDy=0;" edge="1" parent="1" source="coaX5mG1cFPbBgSBIzdM-36" target="coaX5mG1cFPbBgSBIzdM-39">
          <mxGeometry relative="1" as="geometry" />
        </mxCell>
        <mxCell id="coaX5mG1cFPbBgSBIzdM-35" style="edgeStyle=orthogonalEdgeStyle;rounded=0;orthogonalLoop=1;jettySize=auto;html=1;exitX=0;exitY=0.25;exitDx=0;exitDy=0;entryX=1;entryY=0.25;entryDx=0;entryDy=0;dashed=1;" edge="1" parent="1" source="coaX5mG1cFPbBgSBIzdM-36" target="coaX5mG1cFPbBgSBIzdM-33">
          <mxGeometry relative="1" as="geometry" />
        </mxCell>
        <mxCell id="coaX5mG1cFPbBgSBIzdM-36" value="网卡" style="rounded=0;whiteSpace=wrap;html=1;fontSize=16;" vertex="1" parent="1">
          <mxGeometry x="540" y="1100" width="120" height="60" as="geometry" />
        </mxCell>
        <mxCell id="coaX5mG1cFPbBgSBIzdM-37" value="未就绪" style="text;html=1;align=center;verticalAlign=middle;whiteSpace=wrap;rounded=0;fontSize=16;" vertex="1" parent="1">
          <mxGeometry x="680" y="1115" width="60" height="30" as="geometry" />
        </mxCell>
        <mxCell id="coaX5mG1cFPbBgSBIzdM-38" style="edgeStyle=orthogonalEdgeStyle;rounded=0;orthogonalLoop=1;jettySize=auto;html=1;exitX=0;exitY=0.5;exitDx=0;exitDy=0;" edge="1" parent="1" source="coaX5mG1cFPbBgSBIzdM-39" target="coaX5mG1cFPbBgSBIzdM-42">
          <mxGeometry relative="1" as="geometry" />
        </mxCell>
        <mxCell id="coaX5mG1cFPbBgSBIzdM-39" value="内核缓冲区" style="rounded=0;whiteSpace=wrap;html=1;fontSize=16;" vertex="1" parent="1">
          <mxGeometry x="540" y="1240" width="120" height="60" as="geometry" />
        </mxCell>
        <mxCell id="coaX5mG1cFPbBgSBIzdM-40" value="拷贝" style="text;html=1;align=center;verticalAlign=middle;whiteSpace=wrap;rounded=0;fontSize=16;" vertex="1" parent="1">
          <mxGeometry x="620" y="1190" width="60" height="30" as="geometry" />
        </mxCell>
        <mxCell id="coaX5mG1cFPbBgSBIzdM-41" value="就绪" style="text;html=1;align=center;verticalAlign=middle;whiteSpace=wrap;rounded=0;fontSize=16;" vertex="1" parent="1">
          <mxGeometry x="680" y="1255" width="60" height="30" as="geometry" />
        </mxCell>
        <mxCell id="coaX5mG1cFPbBgSBIzdM-42" value="用户空间&lt;div style=&quot;font-size: 16px;&quot;&gt;处理数据&lt;/div&gt;" style="rounded=0;whiteSpace=wrap;html=1;fontSize=16;" vertex="1" parent="1">
          <mxGeometry x="240" y="1240" width="120" height="60" as="geometry" />
        </mxCell>
        <mxCell id="coaX5mG1cFPbBgSBIzdM-43" value="拷贝完成&lt;div style=&quot;font-size: 12px;&quot;&gt;主动返回aio_read信号&lt;/div&gt;" style="text;html=1;align=center;verticalAlign=middle;whiteSpace=wrap;rounded=0;fontSize=12;fillColor=#a20025;fontColor=#ffffff;strokeColor=#6F0000;" vertex="1" parent="1">
          <mxGeometry x="372" y="1230" width="166" height="30" as="geometry" />
        </mxCell>
        <mxCell id="coaX5mG1cFPbBgSBIzdM-44" value="不会阻塞&lt;div&gt;没有数据直接返回-1&lt;/div&gt;" style="text;html=1;align=center;verticalAlign=middle;whiteSpace=wrap;rounded=0;fillColor=#a20025;fontColor=#ffffff;strokeColor=#6F0000;" vertex="1" parent="1">
          <mxGeometry x="400" y="1055" width="110" height="45" as="geometry" />
        </mxCell>
        <mxCell id="coaX5mG1cFPbBgSBIzdM-45" value="没拿到数据&lt;div&gt;程序可以进行&lt;/div&gt;" style="text;html=1;align=center;verticalAlign=middle;whiteSpace=wrap;rounded=0;fillColor=#f8cecc;strokeColor=#b85450;" vertex="1" parent="1">
          <mxGeometry x="130" y="1110" width="90" height="35" as="geometry" />
        </mxCell>
        <mxCell id="coaX5mG1cFPbBgSBIzdM-46" value="&lt;span style=&quot;font-family: Consolas, monaco, monospace; font-size: 18px; text-align: start; white-space-collapse: preserve;&quot;&gt;NioEventLoopGroup&lt;/span&gt;" style="rounded=1;whiteSpace=wrap;html=1;labelBackgroundColor=none;fontColor=default;" vertex="1" parent="1">
          <mxGeometry x="360" y="1430" width="230" height="60" as="geometry" />
        </mxCell>
        <mxCell id="coaX5mG1cFPbBgSBIzdM-47" value="循环组" style="text;html=1;align=center;verticalAlign=middle;whiteSpace=wrap;rounded=0;" vertex="1" parent="1">
          <mxGeometry x="445" y="1400" width="60" height="30" as="geometry" />
        </mxCell>
        <mxCell id="coaX5mG1cFPbBgSBIzdM-49" value="&lt;div style=&quot;&quot;&gt;&lt;pre style=&quot;font-family:&#39;JetBrains Mono&#39;,monospace;font-size:12.0pt;&quot;&gt;bossGroup&lt;/pre&gt;&lt;/div&gt;" style="rounded=1;whiteSpace=wrap;html=1;labelBackgroundColor=none;fontColor=default;" vertex="1" parent="1">
          <mxGeometry x="240" y="1540" width="120" height="60" as="geometry" />
        </mxCell>
        <mxCell id="coaX5mG1cFPbBgSBIzdM-50" value="&lt;div style=&quot;&quot;&gt;&lt;pre style=&quot;font-family:&#39;JetBrains Mono&#39;,monospace;font-size:12.0pt;&quot;&gt;workerGroup&lt;/pre&gt;&lt;/div&gt;" style="rounded=1;whiteSpace=wrap;html=1;fontColor=default;labelBackgroundColor=none;" vertex="1" parent="1">
          <mxGeometry x="590" y="1540" width="120" height="60" as="geometry" />
        </mxCell>
        <mxCell id="coaX5mG1cFPbBgSBIzdM-51" value="" style="endArrow=classic;html=1;rounded=0;entryX=0.45;entryY=-0.008;entryDx=0;entryDy=0;entryPerimeter=0;" edge="1" parent="1" target="coaX5mG1cFPbBgSBIzdM-49">
          <mxGeometry width="50" height="50" relative="1" as="geometry">
            <mxPoint x="480" y="1490" as="sourcePoint" />
            <mxPoint x="530" y="1440" as="targetPoint" />
          </mxGeometry>
        </mxCell>
        <mxCell id="coaX5mG1cFPbBgSBIzdM-53" value="" style="endArrow=classic;html=1;rounded=0;entryX=0.5;entryY=0;entryDx=0;entryDy=0;" edge="1" parent="1" target="coaX5mG1cFPbBgSBIzdM-50">
          <mxGeometry width="50" height="50" relative="1" as="geometry">
            <mxPoint x="480" y="1490" as="sourcePoint" />
            <mxPoint x="530" y="1440" as="targetPoint" />
          </mxGeometry>
        </mxCell>
        <mxCell id="coaX5mG1cFPbBgSBIzdM-54" value="accept" style="text;html=1;align=center;verticalAlign=middle;whiteSpace=wrap;rounded=0;" vertex="1" parent="1">
          <mxGeometry x="270" y="1600" width="60" height="30" as="geometry" />
        </mxCell>
        <mxCell id="coaX5mG1cFPbBgSBIzdM-55" value="read&amp;amp;write" style="text;html=1;align=center;verticalAlign=middle;whiteSpace=wrap;rounded=0;" vertex="1" parent="1">
          <mxGeometry x="622" y="1600" width="60" height="30" as="geometry" />
        </mxCell>
        <mxCell id="coaX5mG1cFPbBgSBIzdM-61" style="edgeStyle=orthogonalEdgeStyle;rounded=0;orthogonalLoop=1;jettySize=auto;html=1;exitX=0.5;exitY=1;exitDx=0;exitDy=0;" edge="1" parent="1" source="coaX5mG1cFPbBgSBIzdM-56" target="coaX5mG1cFPbBgSBIzdM-60">
          <mxGeometry relative="1" as="geometry" />
        </mxCell>
        <mxCell id="coaX5mG1cFPbBgSBIzdM-56" value="&lt;div style=&quot;&quot;&gt;&lt;pre style=&quot;font-family:&#39;JetBrains Mono&#39;,monospace;font-size:12.0pt;&quot;&gt;ServerBootstrap&lt;/pre&gt;&lt;pre style=&quot;font-family:&#39;JetBrains Mono&#39;,monospace;font-size:12.0pt;&quot;&gt;bootStrap&lt;/pre&gt;&lt;/div&gt;" style="rounded=1;whiteSpace=wrap;html=1;fontColor=default;labelBackgroundColor=none;" vertex="1" parent="1">
          <mxGeometry x="415" y="1630" width="145" height="60" as="geometry" />
        </mxCell>
        <mxCell id="coaX5mG1cFPbBgSBIzdM-57" value="" style="endArrow=classic;html=1;rounded=0;entryX=0.25;entryY=0;entryDx=0;entryDy=0;" edge="1" parent="1" target="coaX5mG1cFPbBgSBIzdM-56">
          <mxGeometry width="50" height="50" relative="1" as="geometry">
            <mxPoint x="300" y="1600" as="sourcePoint" />
            <mxPoint x="350" y="1550" as="targetPoint" />
          </mxGeometry>
        </mxCell>
        <mxCell id="coaX5mG1cFPbBgSBIzdM-58" value="" style="endArrow=classic;html=1;rounded=0;entryX=0.75;entryY=0;entryDx=0;entryDy=0;" edge="1" parent="1" target="coaX5mG1cFPbBgSBIzdM-56">
          <mxGeometry width="50" height="50" relative="1" as="geometry">
            <mxPoint x="650" y="1600" as="sourcePoint" />
            <mxPoint x="700" y="1550" as="targetPoint" />
          </mxGeometry>
        </mxCell>
        <mxCell id="coaX5mG1cFPbBgSBIzdM-59" value="服务端引导类" style="text;html=1;align=center;verticalAlign=middle;whiteSpace=wrap;rounded=0;" vertex="1" parent="1">
          <mxGeometry x="446.5" y="1600" width="82" height="30" as="geometry" />
        </mxCell>
        <mxCell id="coaX5mG1cFPbBgSBIzdM-60" value="" style="rounded=1;whiteSpace=wrap;html=1;" vertex="1" parent="1">
          <mxGeometry x="306.5" y="1730" width="362" height="290" as="geometry" />
        </mxCell>
        <mxCell id="coaX5mG1cFPbBgSBIzdM-62" value="&lt;div style=&quot;&quot;&gt;&lt;pre style=&quot;font-family:&#39;JetBrains Mono&#39;,monospace;font-size:12.0pt;&quot;&gt;childHandler()&lt;/pre&gt;&lt;/div&gt;" style="text;html=1;align=center;verticalAlign=middle;whiteSpace=wrap;rounded=0;fontColor=default;labelBackgroundColor=none;" vertex="1" parent="1">
          <mxGeometry x="418" y="1730" width="139" height="30" as="geometry" />
        </mxCell>
        <mxCell id="coaX5mG1cFPbBgSBIzdM-63" value="&lt;div style=&quot;&quot;&gt;&lt;pre style=&quot;font-family:&#39;JetBrains Mono&#39;,monospace;font-size:12.0pt;&quot;&gt;HttpServerCodec()&lt;/pre&gt;&lt;/div&gt;" style="text;html=1;align=center;verticalAlign=middle;whiteSpace=wrap;rounded=0;fontColor=default;labelBackgroundColor=none;" vertex="1" parent="1">
          <mxGeometry x="310" y="1780" width="170" height="30" as="geometry" />
        </mxCell>
        <mxCell id="coaX5mG1cFPbBgSBIzdM-64" value="&lt;div style=&quot;&quot;&gt;&lt;pre style=&quot;font-family:&#39;JetBrains Mono&#39;,monospace;font-size:12.0pt;&quot;&gt;ChunkedWriteHandler()&lt;/pre&gt;&lt;/div&gt;" style="text;html=1;align=center;verticalAlign=middle;whiteSpace=wrap;rounded=0;fontColor=default;labelBackgroundColor=none;" vertex="1" parent="1">
          <mxGeometry x="310" y="1820" width="210" height="30" as="geometry" />
        </mxCell>
        <mxCell id="coaX5mG1cFPbBgSBIzdM-65" value="&lt;div style=&quot;&quot;&gt;&lt;pre style=&quot;font-family:&#39;JetBrains Mono&#39;,monospace;font-size:12.0pt;&quot;&gt;HttpObjectAggregator(&lt;span style=&quot;&quot;&gt;8192&lt;/span&gt;)&lt;/pre&gt;&lt;/div&gt;" style="text;whiteSpace=wrap;html=1;fontColor=default;labelBackgroundColor=none;" vertex="1" parent="1">
          <mxGeometry x="310" y="1845" width="280" height="60" as="geometry" />
        </mxCell>
        <mxCell id="coaX5mG1cFPbBgSBIzdM-66" value="&lt;div style=&quot;&quot;&gt;&lt;pre style=&quot;font-family:&#39;JetBrains Mono&#39;,monospace;font-size:12.0pt;&quot;&gt;WebsocketEncoder()&lt;/pre&gt;&lt;/div&gt;" style="text;whiteSpace=wrap;html=1;fontColor=default;labelBackgroundColor=none;" vertex="1" parent="1">
          <mxGeometry x="310" y="1890" width="180" height="60" as="geometry" />
        </mxCell>
        <mxCell id="coaX5mG1cFPbBgSBIzdM-67" value="&lt;div style=&quot;background-color:#1e1f22;color:#bcbec4&quot;&gt;&lt;pre style=&quot;font-family:&#39;JetBrains Mono&#39;,monospace;font-size:12.0pt;&quot;&gt;&lt;span style=&quot;color:#c77dbb;&quot;&gt;wsSharkHandler&lt;/span&gt;&lt;/pre&gt;&lt;/div&gt;" style="text;whiteSpace=wrap;html=1;" vertex="1" parent="1">
          <mxGeometry x="310" y="1920" width="170" height="60" as="geometry" />
        </mxCell>
        <mxCell id="coaX5mG1cFPbBgSBIzdM-74" style="edgeStyle=orthogonalEdgeStyle;rounded=0;orthogonalLoop=1;jettySize=auto;html=1;exitX=0.75;exitY=1;exitDx=0;exitDy=0;entryX=0.5;entryY=0;entryDx=0;entryDy=0;" edge="1" parent="1" source="coaX5mG1cFPbBgSBIzdM-68" target="coaX5mG1cFPbBgSBIzdM-73">
          <mxGeometry relative="1" as="geometry" />
        </mxCell>
        <mxCell id="coaX5mG1cFPbBgSBIzdM-68" value="&lt;div style=&quot;background-color:#1e1f22;color:#bcbec4&quot;&gt;&lt;pre style=&quot;font-family:&#39;JetBrains Mono&#39;,monospace;font-size:12.0pt;&quot;&gt;&lt;span style=&quot;color:#c77dbb;&quot;&gt;wsImServerCoreHandler&lt;/span&gt;&lt;/pre&gt;&lt;/div&gt;" style="text;whiteSpace=wrap;html=1;" vertex="1" parent="1">
          <mxGeometry x="310" y="1960" width="240" height="60" as="geometry" />
        </mxCell>
        <mxCell id="coaX5mG1cFPbBgSBIzdM-69" value="HTTP编解码器" style="text;html=1;align=center;verticalAlign=middle;whiteSpace=wrap;rounded=0;" vertex="1" parent="1">
          <mxGeometry x="568.5" y="1780" width="100" height="30" as="geometry" />
        </mxCell>
        <mxCell id="coaX5mG1cFPbBgSBIzdM-70" value="&lt;span style=&quot;color: rgb(0, 0, 0); font-family: -apple-system, system-ui, &amp;quot;system-ui&amp;quot;, &amp;quot;Segoe UI&amp;quot;, Roboto, Oxygen-Sans, Ubuntu, Cantarell, &amp;quot;Helvetica Neue&amp;quot;, sans-serif; font-style: normal; font-variant-ligatures: normal; font-variant-caps: normal; font-weight: 400; letter-spacing: normal; orphans: 2; text-align: start; text-indent: 0px; text-transform: none; widows: 2; word-spacing: 0px; -webkit-text-stroke-width: 0px; white-space: normal; background-color: rgb(247, 247, 247); text-decoration-thickness: initial; text-decoration-style: initial; text-decoration-color: initial; float: none; display: inline !important;&quot;&gt;&lt;font style=&quot;font-size: 12px;&quot;&gt;以块方式写数据&lt;/font&gt;&lt;/span&gt;" style="text;whiteSpace=wrap;html=1;" vertex="1" parent="1">
          <mxGeometry x="578.5" y="1820" width="90" height="30" as="geometry" />
        </mxCell>
        <mxCell id="coaX5mG1cFPbBgSBIzdM-71" value="HTTP多段聚合" style="text;html=1;align=center;verticalAlign=middle;whiteSpace=wrap;rounded=0;" vertex="1" parent="1">
          <mxGeometry x="573" y="1860" width="91" height="30" as="geometry" />
        </mxCell>
        <mxCell id="coaX5mG1cFPbBgSBIzdM-72" value="WebSocket编码器" style="text;html=1;align=center;verticalAlign=middle;whiteSpace=wrap;rounded=0;" vertex="1" parent="1">
          <mxGeometry x="568.5" y="1905" width="101" height="30" as="geometry" />
        </mxCell>
        <mxCell id="coaX5mG1cFPbBgSBIzdM-73" value="&lt;div style=&quot;&quot;&gt;&lt;pre style=&quot;font-family:&#39;JetBrains Mono&#39;,monospace;font-size:12.0pt;&quot;&gt;shutdownGracefully()&lt;/pre&gt;&lt;/div&gt;" style="text;whiteSpace=wrap;html=1;fontColor=default;labelBackgroundColor=none;" vertex="1" parent="1">
          <mxGeometry x="390" y="2070" width="200" height="60" as="geometry" />
        </mxCell>
        <mxCell id="coaX5mG1cFPbBgSBIzdM-75" value="JVM优雅关闭" style="text;html=1;align=center;verticalAlign=middle;whiteSpace=wrap;rounded=0;" vertex="1" parent="1">
          <mxGeometry x="498.5" y="2040" width="80" height="30" as="geometry" />
        </mxCell>
      </root>
    </mxGraphModel>
  </diagram>
</mxfile>
